<?xml version="1.0" encoding="utf-8"?>
<!-- Generator: Adobe Illustrator 27.5.0, SVG Export Plug-In . SVG Version: 6.00 Build 0)  -->
<svg version="1.1" xmlns="http://www.w3.org/2000/svg" xmlns:xlink="http://www.w3.org/1999/xlink" x="0px" y="0px"
	 viewBox="0 0 500 500" style="enable-background:new 0 0 500 500;" xml:space="preserve">
<g id="BACKGROUND">
</g>
<g id="OBJECTS">
	<path style="fill:#E3CA9A;" d="M64.076,376.491c0,0-5.583,32.709,6.318,43.753c11.901,11.044,364.518,6.159,369.307,1.673
		c4.934-4.622,8.925-35.744-0.071-44.806C429.656,367.063,77.696,365.293,64.076,376.491z"/>
	<ellipse style="fill:#BCBEC0;" cx="151.139" cy="405.059" rx="81.326" ry="13.601"/>
	<g>
		<path style="fill:#523626;" d="M155.298,356.869c-9.872,1.203-17.311,2.144-17.311,2.144l-1.85,49.58c0,0,5.357-0.8,12.904-2.101
			C149.809,389.819,151.9,373.209,155.298,356.869z"/>
		<path style="fill:#997048;" d="M228.682,357.431c-2.629-3.564-12.099-3.448-14.85-3.693c-2.752-0.245-4.552-1.676-10.546-1.951
			c-3.872-0.178-29.98,2.888-47.987,5.082c-3.398,16.34-5.489,32.951-6.258,49.623c11.818-2.037,29.019-5.308,39.542-8.691
			c17.241-5.542,39.655-12.747,42.622-19.945C234.172,370.658,231.311,360.995,228.682,357.431z"/>
	</g>
	<path style="fill:#CADBDB;" d="M66.117,113.551c-17.846,15.4-14.059,174.105-3.348,191.25s362.38,18.327,375.527,9.508
		c13.147-8.819,17.758-194.225,1.918-204.061S85.402,96.909,66.117,113.551z"/>
	<path style="fill:#997048;" d="M201.045,246.309c0,0-19.5,34.25-22.75,35.25s-43-27.25-43-27.25l-1.489,32.482
		c0,0,43.489,18.518,50.553,16.018c7.064-2.5,26.186-51.935,26.186-51.935L201.045,246.309z"/>
	<path style="fill:#AC8457;" d="M240.751,368.843c-2.202-3.843-11.622-4.816-14.328-5.376c-2.705-0.56-4.329-2.188-10.252-3.15
		c-5.923-0.963-65.696-0.328-65.696-0.328l-7.537,49.039c0,0,35.574-1.168,53.338-4.692s40.858-8.105,44.633-14.914
		C244.684,382.613,242.952,372.685,240.751,368.843z"/>
	<path style="fill:#774F38;" d="M153.608,394.983c-2.311-6.698-6.068-9.997-4.57-16.401c1.498-6.404,5.881-18.636,5.881-18.636
		l-21.865-1.656l-5.482-5.94l-52.468,16.036c0,0-1.996,12.853,1.334,28.155s16.115,19.55,25.301,20.26
		c9.186,0.71,33.359,0.823,39.152,3.026C146.683,422.03,155.919,401.681,153.608,394.983z"/>
	<path style="fill:#BCBEC0;" d="M127.572,352.35l-52.468,16.036c0,0-0.505,3.256-0.583,8.438
		c16.242-0.863,58.533-18.533,58.533-18.533L127.572,352.35z"/>
	<g>
		<ellipse style="fill:#BCBEC0;" cx="326.625" cy="405.059" rx="59.67" ry="9.25"/>
		<polygon style="fill:#C2BEA1;" points="307.889,318.809 299.198,318.809 302.856,397.809 311.17,397.809 		"/>
		<polygon style="fill:#E3DEBC;" points="291.198,318.809 278.198,407.809 287.198,407.809 299.198,318.809 		"/>
		<g style="opacity:0.4;">
			<path style="fill:#BCBEC0;" d="M289.751,328.72c2.69-0.307,5.416-0.265,8.099,0.094l1.349-10.005h-8L289.751,328.72z"/>
		</g>
		<polygon style="fill:#C2BEA1;" points="347.2,318.809 355.891,318.809 352.234,397.809 343.92,397.809 		"/>
		<polygon style="fill:#E3DEBC;" points="363.891,318.809 376.891,407.809 367.891,407.809 355.891,318.809 		"/>
		<g style="opacity:0.4;">
			<path style="fill:#BCBEC0;" d="M365.339,328.72c-2.69-0.307-5.416-0.265-8.099,0.094l-1.349-10.005h8L365.339,328.72z"/>
		</g>
		<g>
			<path style="fill:#465930;" d="M406.254,185.975c0,0-12.39-6.654-11.208-9.331c1.182-2.677,11.162,5.418,11.991,4.267
				c0.829-1.151,1.814-8.351-0.796-10.531c-2.61-2.18-11.971-0.828-13.475-4.55c-1.504-3.722,11.348,2.647,12.348-1.041
				s2.083-8.627-2.539-10.691s-16.741,3.033-18.013-4.143c-1.272-7.175,18.082-0.613,18.082-0.613s0.19-14.019-3.218-15.501
				c-3.408-1.482-20.126,8.67-22.485,2.749s20.955-2.351,20.242-6.658c-0.135-0.814-0.433-2.267-1.04-3.907c0,0,0,0,0,0
				c-17.485-9.021-41.634,8.276-41.634,8.276s-8.645-5.06-16.692-8.357c-8.047-3.297-19.316,9.476-19.316,9.476
				c2.148,3.652,14.093-6.32,18.331-2.276c4.238,4.043-11.644,5.482-11.096,8.525s5.169,7.614,8.894,6.862
				c3.725-0.752,14.289-8.812,15.467-3.972c1.178,4.84-10.113,5.083-9.3,7.894c0.813,2.811,10.579,6.637,10.579,6.637
				s8.349-12.381,10.359-8.738c2.01,3.643-6.657,7.903-5.51,11.152c1.147,3.249,5.534,7.14,8.095,6.31
				c2.561-0.83,5.092-7.17,6.746-3.442s-4.208,6.685-2.818,8.374c1.39,1.689,11.364,9.876,12.212,8.43
				c0.849-1.446,0.536-7.982,3.18-6.301c2.643,1.681-3.978,6.999-0.62,9.229s26.552,11.305,26.552,11.305L406.254,185.975z"/>
			<path style="fill:#607B42;" d="M337.816,125.944c8.047,3.297,16.692,8.357,16.692,8.357s24.149-17.296,41.634-8.276c0,0,0,0,0,0
				c-2.602-7.032-14.943-18.465-39.7-1.336c0,0-7.81-8.042-19.852-5.343c-12.042,2.699-20.237,12.421-18.09,16.074
				C318.499,135.421,329.769,122.648,337.816,125.944z"/>
			<g>
				<path style="fill:#607B42;" d="M355.186,132.674c-4.502,9.459-6.924,19.565-8.176,29.777c-0.59,5.115-0.998,10.256-1.147,15.422
					c-0.192,5.163-0.249,10.343-0.198,15.538c-0.021,5.195,0.05,10.389,0.154,15.584c0.05,5.197,0.251,10.39,0.376,15.59
					c0.33,10.397,0.818,20.796,1.215,31.248c-2.051-10.259-3.412-20.641-4.331-31.061c-0.499-5.209-0.772-10.434-1.046-15.659
					c-0.22-5.228-0.322-10.46-0.366-15.693c0.027-5.232,0.097-10.482,0.424-15.734c0.37-5.247,0.871-10.507,1.845-15.702
					C345.787,151.619,349.223,141.32,355.186,132.674z"/>
			</g>
		</g>
		<g>
			<path style="fill:#465930;" d="M302.627,201.296c2.611,0.212,5.18,1.096,7.531,2.368c2.342,1.298,4.473,2.983,6.339,4.902
				c3.766,3.832,6.547,8.475,8.776,13.25c1.081,2.402,2.074,4.844,2.934,7.332c0.821,2.501,1.592,5.018,2.149,7.588
				c1.169,5.12,1.807,10.361,1.704,15.585c-1.14-5.095-2.403-10.085-3.963-14.969c-0.808-2.432-1.608-4.861-2.56-7.232
				c-0.913-2.384-1.896-4.741-2.986-7.047c-1.039-2.329-2.203-4.572-3.492-6.744c-1.261-2.188-2.716-4.246-4.292-6.199
				C311.581,206.268,307.597,202.984,302.627,201.296z"/>
		</g>
		<linearGradient id="SVGID_1_" gradientUnits="userSpaceOnUse" x1="195.099" y1="139.8826" x2="299.7014" y2="139.8826">
			<stop  offset="0" style="stop-color:#658235"/>
			<stop  offset="0.9543" style="stop-color:#506637"/>
		</linearGradient>
		<path style="fill:url(#SVGID_1_);" d="M292.432,144.735c0,0,14.667-14.667,2.333-25c-4-2-5.383,14-10.691,12.5
			s4.881-12.833,0.953-16.833c-3.928-4-9.848-6.333-11.888-3.667c-2.04,2.667,0.96,22.667-5.373,23.333
			c-6.333,0.667,1-22.947-2.333-24.474s-14-0.86-15.667,1.807c-1.667,2.667,11.667,23,2.333,22.333
			c-9.333-0.667-7.141-18-10.57-18.333c-3.43-0.333-12.43,2-11.763,4.667c0.667,2.667,10.667,14,6,15
			c-4.667,1-8.333-10.667-13-10.667c-4.667,0-12.667,16.333-18.333,17.667c-5.667,1.333-9.333-1.667-9.333-1.667
			s8.667,10,13.333,11.333c4.667,1.333,20.333-10,23.667-6.667c3.333,3.333-14.667,9.667-13.333,12
			c1.333,2.333,7.333,6.333,12.333,5c5-1.333,14.333-20.333,18.667-16.667c4.333,3.667-10.311,16.333-8.156,18.667
			c2.156,2.333,7.822,6.893,11.489,3.946s7-23.613,11.667-21.28c4.667,2.333-6,20.56-0.667,21.28c5.333,0.72,12.667,0.72,15-1.613
			c2.333-2.333-2.667-17.667,1.333-18s2.523,17,4.595,16.333C287.099,165.069,295.766,155.402,292.432,144.735z"/>
		<g>
			<path style="fill:#465930;" d="M330.934,178.929c2.465-0.667,8.333,0.667,8.333,0.667l-1.333-7.333c0,0-9.667,1.667-10-1.667
				c-0.333-3.333,9.9-1.06,9.9-1.06l8.353-2.752c0,0-12.488-19.251-44.586-2.854c0,0,13.667-5.667,13-1.667s-11.333,4.667-13,7.333
				c-1.667,2.667-3,7,0,6.333s14-8,15-5.333c1,2.667-11,7-10.667,9c0.333,2,2,7.333,5,5.667c3-1.667,10.5-9.667,10.917-6.333
				s-6.917,8.667-5.917,10s2.201,8.198,5.934,4.667c3.733-3.531,5.066-8.667,6.4-6c1.333,2.667-3.333,9.116-2.333,10.058
				s10.333,5.873,10.333,5.873l3-5.873c0,0-9-8.392-6.667-9.725s6.667,3.319,6.667,3.319v-6.986
				C339.267,184.262,328.469,179.596,330.934,178.929z"/>
			<path style="fill:#607B42;" d="M299.816,166.004c0,0,11.118-7.741,16.784-5.741c5.667,2,6-1.833,6-1.833s1.833,3.241,4,3.787
				c2.167,0.546,9.667-1.379,12.667,0s7.167,7.046,7.167,7.046s-0.118-21.333-23.309-14.667
				C322.434,154.763,311.531,148.411,299.816,166.004z"/>
			<g>
				<path style="fill:#607B42;" d="M323.175,156.787c-1.268,5.242-2.404,10.473-3.178,15.789l-0.645,3.968l-0.53,3.989l-0.546,3.983
					l-0.464,3.996c-0.31,2.664-0.619,5.326-0.88,7.996c-0.266,2.669-0.574,5.332-0.778,8.008c-0.214,2.674-0.514,5.339-0.713,8.015
					l-0.616,8.024l-0.565,8.029l-0.476,8.035c-0.332,5.356-0.57,10.719-0.803,16.081c-0.418,10.729-0.734,21.457-0.518,32.227
					c-1.463-10.684-1.803-21.5-1.823-32.275c-0.008-2.696-0.009-5.393,0.08-8.086c0.074-2.694,0.104-5.391,0.226-8.083
					c0.205-5.387,0.545-10.768,0.889-16.148c0.837-10.75,1.957-21.486,3.668-32.144l0.64-3.995l0.749-3.98l0.772-3.973l0.896-3.951
					C319.74,167.028,321.278,161.825,323.175,156.787z"/>
			</g>
		</g>
		<path style="fill:#465930;" d="M296.962,195.642c-15.313-3.104-25,21-32.667,25s-14.311,5.667-15.156,7
			c-0.844,1.333,5.156,3,5.156,3s5.667-7,7-5s-2.667,3.667-1.333,5c1.333,1.333,5.988,1.667,6.994,0s1.339-10.333,4.339-10.667
			c3-0.333,0.096,9.333,1.715,9.333s6.365,0,7.658-3.333c1.294-3.333-1.04-17.254,3.627-17.127c4.667,0.127,1,13.461,3,13.794
			s8,2,8.333-2c0.333-4-5.333-20.803-1.333-19.402s3.333,15.735,5.667,15.402C302.295,216.309,321.628,200.642,296.962,195.642z"/>
		<g>
			<path style="fill:#607B42;" d="M268.874,177.653c4.709-0.437,9.556,0.448,13.996,2.277c4.426,1.873,8.528,4.564,12.02,7.906
				c3.552,3.301,6.434,7.242,8.879,11.378c2.437,4.155,4.341,8.573,6,13.042c3.166,8.998,5.488,18.177,7.24,27.487
				c1.741,9.302,2.822,18.726,3.067,28.162c-1.489-9.319-3.205-18.553-5.358-27.679c-1.097-4.557-2.23-9.102-3.541-13.598
				c-1.28-4.504-2.614-8.991-4.226-13.349c-1.563-4.375-3.394-8.641-5.642-12.662c-2.207-4.044-4.89-7.812-8.057-11.122
				c-3.174-3.309-6.885-6.127-10.992-8.234C278.154,179.145,273.592,177.883,268.874,177.653z"/>
		</g>
		
			<linearGradient id="SVGID_00000158009346904320640170000003395344036898185131_" gradientUnits="userSpaceOnUse" x1="265.7307" y1="166.1358" x2="228.7307" y2="241.1358">
			<stop  offset="0" style="stop-color:#75973D"/>
			<stop  offset="0.9543" style="stop-color:#607B42"/>
		</linearGradient>
		<path style="fill:url(#SVGID_00000158009346904320640170000003395344036898185131_);" d="M267.545,177.642c0,0-2.5-10.25-21-7
			c-7.5,1.5-19.5,11.75-19.5,11.75s13.5-3,12.25,3.5s-17,5-22.5,8s-6,10.5-4,10.25s13.5-6.5,14.5-2.75s-0.5,5.5-5.75,8s-13,7-13.5,8
			s-1.25,11.25-1.25,11.25s10.25-11.25,13.25-7s-12.5,16.75-13.25,19s2.25,10.5,2.5,13.75c0.25,3.25-1.25,7.75-1.25,7.75l16-13.75
			c0,0-2.75-26,3-25.25s4.75,15.5,6.25,15.5s10-3.75,9.75-7s-3.75-32,5.75-33.75c9.5-1.75,1.5,25.75,4.25,26.75s17-11.25,18-13
			s-10.25-21.5-5-24.25s11.25,1,15.75,15c0,1.75,17.5-15.5,5.75-25C279.045,170.006,267.545,177.642,267.545,177.642z"/>
		<g>
			<g>
				<path style="fill:#607B42;" d="M282.293,139.883c3.453,0.804,6.902,1.682,10.24,3.007c3.343,1.282,6.546,3.169,9.23,5.635
					c2.71,2.437,4.982,5.306,6.966,8.314c1.993,3.009,3.722,6.149,5.319,9.362c6.383,12.881,9.943,26.975,11.725,41.117
					c1.673,14.155,2.617,28.277,3.504,42.436c0.416,7.077,0.778,14.158,1.014,21.245c0.233,7.084,0.485,14.178,0.274,21.267
					c-0.588-14.159-1.977-28.261-3.185-42.37c-0.656-7.051-1.281-14.103-2.002-21.144c-0.722-7.036-1.403-14.095-2.365-21.06
					c-2.009-13.904-5.526-27.612-11.36-40.345c-0.742-1.583-1.508-3.157-2.323-4.704c-0.787-1.564-1.637-3.089-2.532-4.58
					c-1.803-2.972-3.832-5.8-6.244-8.268c-2.423-2.454-5.259-4.474-8.419-6.003C288.988,142.241,285.625,141.094,282.293,139.883z"
					/>
			</g>
			<g>
				<path style="fill:#607B42;" d="M377.962,161.942c-5.87,1.916-11.162,5.218-15.485,9.463c-4.363,4.218-7.818,9.277-10.664,14.621
					c-2.819,5.37-5.066,11.045-6.866,16.859c-1.831,5.807-3.263,11.749-4.389,17.752c-1.181,5.994-2.026,12.059-2.698,18.143
					c-0.698,6.084-1.111,12.201-1.436,18.326c-0.284,6.127-0.427,12.267-0.356,18.409c0.066,6.142,0.245,12.293,0.954,18.416
					c-1.369-6.025-1.947-12.202-2.426-18.358c-0.418-6.166-0.596-12.352-0.512-18.538c0.048-6.187,0.412-12.371,0.95-18.543
					c0.594-6.167,1.428-12.318,2.58-18.42c2.391-12.155,5.925-24.286,12.158-35.176c3.113-5.416,6.971-10.475,11.718-14.575
					C366.23,166.241,371.912,163.216,377.962,161.942z"/>
			</g>
		</g>
		
			<linearGradient id="SVGID_00000103228543132272978350000018383723216011609491_" gradientUnits="userSpaceOnUse" x1="374.4262" y1="176.9918" x2="391.4262" y2="238.4918">
			<stop  offset="0" style="stop-color:#75973D"/>
			<stop  offset="0.9543" style="stop-color:#607B42"/>
		</linearGradient>
		<path style="fill:url(#SVGID_00000103228543132272978350000018383723216011609491_);" d="M426.628,200.609
			c-3-4-6.333-3.667-13-4.333c-6.667-0.667-14.333-2-10.333-7.667c4-5.667,19,4.333,21,3c2-1.333-3-16.333-8.667-17.667
			c-5.667-1.333-19.333,5.667-20.333-1s2.667-9.667,8-10.333c5.333-0.667,12.333,3.667,12.667,2.333
			c0.333-1.333-11.667-14.667-18.667-13.667s-14,3.333-19.333,10.667c0,0-7-10.607-26.333-3.47
			c-10.667,3.47-16.667,14.47-16.667,14.47s32.667-10.333,34-2.333c1.333,8-13,5.333-22.333,7c-9.333,1.667-15.667,4-16.333,6.333
			s1.333,13,6.333,12s20.333-11.333,28.667-12s15.667,6,11.333,10.333c-4.333,4.333-12,2-18.667,5.333
			c-6.667,3.333-14.667,11.412-14,12.539c0.667,1.127,12,11.794,16,12.794s18-20.667,24.333-15.667s-14.333,19.333-13,21
			c1.333,1.667,8,7.667,10,8c2,0.333,10.667-13,13.667-7.667c3,5.333-4,13.667-4,14c0,0.333,10,6.333,12.333,10.667
			c2.333,4.333,10.333-18,10.333-18s-10.333-4.667-7.667-7.667c2.667-3,9,3.333,10.667,1.667c1.667-1.667,7-8,4-10
			s-19.667-7.333-13.667-11.667c6-4.333,14,3.079,15.667,2.539C424.295,211.609,429.628,204.609,426.628,200.609z"/>
		<g>
			
				<linearGradient id="SVGID_00000064318821517675689320000016197063791159488675_" gradientUnits="userSpaceOnUse" x1="323.2547" y1="261.1444" x2="347.9213" y2="302.4778">
				<stop  offset="0" style="stop-color:#CD9D83"/>
				<stop  offset="0.9542" style="stop-color:#BA8F77"/>
			</linearGradient>
			<path style="fill:url(#SVGID_00000064318821517675689320000016197063791159488675_);" d="M327.545,241.309H282.77
				c-1.297,0-2.284,1.163-2.074,2.443l11.309,68.796c0.167,1.016,1.045,1.761,2.074,1.761h33.466h33.466
				c1.029,0,1.907-0.745,2.074-1.761l11.309-68.796c0.21-1.28-0.777-2.443-2.074-2.443H327.545z"/>
			<g>
				<g>
					<g>
						<path style="fill:#E8C0AF;" d="M304.086,269.522c-0.444,0.667-0.888,1.334-1.332,2.001c-0.179,0.268,0.255,0.517,0.433,0.25
							c0.444-0.667,0.888-1.334,1.332-2.001C304.698,269.504,304.264,269.255,304.086,269.522L304.086,269.522z"/>
					</g>
				</g>
				<g>
					<g>
						<path style="fill:#E8C0AF;" d="M305.745,271.517c-0.333,0.444-0.667,0.889-1,1.333c-0.193,0.257,0.242,0.505,0.433,0.25
							c0.333-0.444,0.667-0.889,1-1.333C306.371,271.51,305.936,271.262,305.745,271.517L305.745,271.517z"/>
					</g>
				</g>
				<g>
					<g>
						<path style="fill:#E8C0AF;" d="M318.079,257.269c0.111,0.167,0.222,0.333,0.333,0.5c0.178,0.266,0.611,0.016,0.431-0.253
							c-0.111-0.167-0.222-0.333-0.333-0.5C318.333,256.749,317.9,257,318.079,257.269L318.079,257.269z"/>
					</g>
				</g>
				<g>
					<g>
						<path style="fill:#E8C0AF;" d="M320.246,256.435c0.111,0.167,0.222,0.333,0.333,0.5c0.178,0.266,0.611,0.016,0.431-0.253
							c-0.111-0.167-0.222-0.333-0.333-0.5C320.5,255.916,320.067,256.166,320.246,256.435L320.246,256.435z"/>
					</g>
				</g>
				<g>
					<g>
						<path style="fill:#E8C0AF;" d="M294.088,255.858c0.5-0.278,1-0.556,1.5-0.833c0.281-0.156,0.029-0.588-0.253-0.431
							c-0.5,0.278-1,0.556-1.5,0.833C293.554,255.582,293.806,256.014,294.088,255.858L294.088,255.858z"/>
					</g>
				</g>
				<g>
					<g>
						<path style="fill:#E8C0AF;" d="M328.381,275.474c-0.06,0.771,0.047,1.517,0.325,2.238c0.114,0.297,0.599,0.171,0.483-0.129
							c-0.263-0.683-0.365-1.376-0.308-2.105C328.906,275.156,328.406,275.155,328.381,275.474L328.381,275.474z"/>
					</g>
				</g>
				<g>
					<g>
						<path style="fill:#E8C0AF;" d="M331.126,276.892c0.322,0,0.326-0.5,0.004-0.5
							C330.808,276.392,330.804,276.892,331.126,276.892L331.126,276.892z"/>
					</g>
				</g>
				<g>
					<g>
						<path style="fill:#E8C0AF;" d="M347.413,254.935c0.056,0.111,0.111,0.222,0.167,0.333c0.144,0.288,0.575,0.034,0.431-0.253
							c-0.056-0.111-0.111-0.222-0.167-0.333C347.7,254.394,347.269,254.648,347.413,254.935L347.413,254.935z"/>
					</g>
				</g>
				<g>
					<g>
						<path style="fill:#E8C0AF;" d="M356.193,249.717c0.333-0.056,0.667-0.111,1-0.167c0.317-0.053,0.186-0.535-0.129-0.483
							c-0.333,0.056-0.667,0.111-1,0.167C355.746,249.287,355.878,249.769,356.193,249.717L356.193,249.717z"/>
					</g>
				</g>
				<g>
					<g>
						<path style="fill:#E8C0AF;" d="M357.412,270.85c-0.111,0.167-0.222,0.333-0.333,0.5c-0.179,0.268,0.255,0.517,0.433,0.25
							c0.111-0.167,0.222-0.333,0.333-0.5C358.024,270.832,357.59,270.583,357.412,270.85L357.412,270.85z"/>
					</g>
				</g>
				<g>
					<g>
						<path style="fill:#E8C0AF;" d="M359.554,271.243c-0.111,0.278-0.222,0.556-0.333,0.833c-0.12,0.299,0.364,0.428,0.482,0.132
							c0.111-0.278,0.222-0.556,0.333-0.833C360.156,271.076,359.672,270.947,359.554,271.243L359.554,271.243z"/>
					</g>
				</g>
				<g>
					<g>
						<path style="fill:#E8C0AF;" d="M334.588,247.691c0.222-0.111,0.444-0.222,0.667-0.333c0.288-0.144,0.034-0.575-0.253-0.431
							c-0.222,0.111-0.444,0.222-0.667,0.333C334.047,247.403,334.301,247.835,334.588,247.691L334.588,247.691z"/>
					</g>
				</g>
				<g>
					<g>
						<path style="fill:#E8C0AF;" d="M301.557,295.446c0.163,0.335,0.326,0.67,0.489,1.005c0.141,0.289,0.572,0.035,0.431-0.253
							c-0.163-0.335-0.326-0.67-0.489-1.005C301.848,294.904,301.417,295.158,301.557,295.446L301.557,295.446z"/>
					</g>
				</g>
				<g>
					<g>
						<path style="fill:#E8C0AF;" d="M303.746,295.269c0.111,0.167,0.222,0.333,0.333,0.5c0.178,0.266,0.611,0.016,0.431-0.253
							c-0.111-0.167-0.222-0.333-0.333-0.5C304,294.749,303.567,295,303.746,295.269L303.746,295.269z"/>
					</g>
				</g>
				<g>
					<g>
						<path style="fill:#E8C0AF;" d="M296.793,287.392c0.5-0.056,1-0.111,1.5-0.167c0.316-0.035,0.323-0.536,0.004-0.5
							c-0.5,0.056-1,0.111-1.5,0.167C296.48,286.927,296.474,287.427,296.793,287.392L296.793,287.392z"/>
					</g>
				</g>
				<g>
					<g>
						<path style="fill:#E8C0AF;" d="M322.712,297.807c-0.056,0.5-0.111,1-0.167,1.5c-0.036,0.32,0.465,0.32,0.5,0.004
							c0.056-0.5,0.111-1,0.167-1.5C323.247,297.49,322.747,297.49,322.712,297.807L322.712,297.807z"/>
					</g>
				</g>
				<g>
					<g>
						<path style="fill:#E8C0AF;" d="M324.626,298.392c0.322,0,0.326-0.5,0.004-0.5
							C324.308,297.892,324.304,298.392,324.626,298.392L324.626,298.392z"/>
					</g>
				</g>
				<g>
					<g>
						<path style="fill:#E8C0AF;" d="M346.276,291.165c0.493,0.398,0.985,0.796,1.478,1.194c0.248,0.2,0.603-0.153,0.352-0.356
							c-0.493-0.398-0.985-0.796-1.478-1.194C346.38,290.61,346.025,290.963,346.276,291.165L346.276,291.165z"/>
					</g>
				</g>
				<g>
					<g>
						<path style="fill:#E8C0AF;" d="M352.952,287.653c0.167,0.167,0.333,0.333,0.5,0.5c0.227,0.227,0.58-0.127,0.352-0.355
							c-0.167-0.167-0.333-0.333-0.5-0.5C353.077,287.07,352.724,287.425,352.952,287.653L352.952,287.653z"/>
					</g>
				</g>
				<g>
					<g>
						<path style="fill:#E8C0AF;" d="M354.245,303.85c-0.167,0.333-0.333,0.667-0.5,1c-0.143,0.287,0.289,0.539,0.433,0.25
							c0.167-0.333,0.333-0.667,0.5-1C354.822,303.813,354.389,303.562,354.245,303.85L354.245,303.85z"/>
					</g>
				</g>
				<g>
					<g>
						<path style="fill:#E8C0AF;" d="M355.578,304.35c-0.167,0.222-0.333,0.444-0.5,0.667c-0.193,0.257,0.242,0.505,0.433,0.25
							c0.167-0.222,0.333-0.444,0.5-0.667C356.204,304.343,355.769,304.096,355.578,304.35L355.578,304.35z"/>
					</g>
				</g>
				<g>
					<g>
						<path style="fill:#E8C0AF;" d="M309.96,308.392c0.322,0,0.326-0.5,0.004-0.5C309.641,307.892,309.638,308.392,309.96,308.392
							L309.96,308.392z"/>
					</g>
				</g>
				<g>
					<g>
						<path style="fill:#E8C0AF;" d="M312.293,307.892c0.322,0,0.326-0.5,0.004-0.5
							C311.975,307.392,311.971,307.892,312.293,307.892L312.293,307.892z"/>
					</g>
				</g>
				<g>
					<g>
						<path style="fill:#E8C0AF;" d="M296.626,309.225c0.322,0,0.326-0.5,0.004-0.5
							C296.308,308.725,296.304,309.225,296.626,309.225L296.626,309.225z"/>
					</g>
				</g>
				<g>
					<g>
						<path style="fill:#E8C0AF;" d="M287.96,250.392c0.322,0,0.326-0.5,0.004-0.5C287.641,249.892,287.638,250.392,287.96,250.392
							L287.96,250.392z"/>
					</g>
				</g>
				<g>
					<g>
						<path style="fill:#E8C0AF;" d="M289.46,251.225c0.322,0,0.326-0.5,0.004-0.5C289.141,250.725,289.138,251.225,289.46,251.225
							L289.46,251.225z"/>
					</g>
				</g>
				<g>
					<g>
						<path style="fill:#E8C0AF;" d="M317.293,247.392c0.322,0,0.326-0.5,0.004-0.5
							C316.975,246.892,316.971,247.392,317.293,247.392L317.293,247.392z"/>
					</g>
				</g>
				<g>
					<g>
						<path style="fill:#E8C0AF;" d="M364.626,259.392c0.322,0,0.326-0.5,0.004-0.5
							C364.308,258.892,364.304,259.392,364.626,259.392L364.626,259.392z"/>
					</g>
				</g>
				<g>
					<g>
						<path style="fill:#E8C0AF;" d="M345.053,269.54c0.056,0.167,0.111,0.333,0.167,0.5c0.101,0.304,0.585,0.177,0.483-0.129
							c-0.056-0.167-0.111-0.333-0.167-0.5C345.435,269.107,344.951,269.234,345.053,269.54L345.053,269.54z"/>
					</g>
				</g>
				<g>
					<g>
						<path style="fill:#E8C0AF;" d="M336.245,306.184c-0.111,0.167-0.222,0.333-0.333,0.5c-0.179,0.268,0.255,0.517,0.433,0.25
							c0.111-0.167,0.222-0.333,0.333-0.5C336.857,306.165,336.423,305.917,336.245,306.184L336.245,306.184z"/>
					</g>
				</g>
				<g>
					<g>
						<path style="fill:#E8C0AF;" d="M337.748,306.186c-0.285,0.426-0.462,0.882-0.535,1.389c-0.045,0.315,0.437,0.45,0.482,0.132
							c0.067-0.467,0.222-0.878,0.486-1.271C338.36,306.168,337.926,305.919,337.748,306.186L337.748,306.186z"/>
					</g>
				</g>
			</g>
		</g>
		<g style="opacity:0.6;">
			<path style="fill:#BCBEC0;" d="M260.737,171.203c-10.816,12.34-30.982,36.933-34.692,47.158c0,0,24.5-32.469,41.5-40.719
				C267.545,177.642,266.491,173.352,260.737,171.203z"/>
			<path style="fill:#BCBEC0;" d="M267.545,177.642c0.972-0.472,1.825-0.936,2.594-1.394
				C268.534,176.988,267.545,177.642,267.545,177.642z"/>
		</g>
		<path style="opacity:0.7;fill:#BCBEC0;" d="M382.803,156.887c-1.719,1.35-3.348,3.001-4.842,5.055
			c5,9.033,16.667,51.627,16.667,51.627S391.382,170.101,382.803,156.887z"/>
		<rect x="280.668" y="314.309" style="fill:#E3DEBC;" width="93.754" height="9"/>
		
			<line style="fill:none;stroke:#E3DEBC;stroke-width:3;stroke-miterlimit:10;" x1="288.698" y1="368.809" x2="366.391" y2="368.809"/>
		
			<line style="fill:none;stroke:#C2BEA1;stroke-width:2.2308;stroke-miterlimit:10;" x1="304.043" y1="358.84" x2="351.046" y2="358.84"/>
	</g>
	<g>
		<path style="fill:#FF8138;" d="M160.75,167.37c-8.623-3.696-14.013,0.924-16.4,0c-2.387-0.924-9.162-2.464-12.858-2.772
			c-3.696-0.308-29.277,9.075-34.186,16.7c-4.909,7.625-0.924,31.835-11.087,34.67c-10.163,2.835-14.475-1.808-15.399,0.052
			c-0.924,1.859-0.616,9.741,3.696,13.654c4.312,3.913,8.931,2.373,11.087,6.376c2.156,4.004,4.312,10.779,9.239,13.551
			c4.928,2.772,31.029,0.154,31.029,0.154l26.871-10.164l9.239-9.918l5.978-49.858C167.96,179.815,169.374,171.066,160.75,167.37z"
			/>
		<g>
			<defs>
				<path id="SVGID_00000101099665598223773510000013554124077368293799_" d="M160.75,167.37c-8.623-3.696-14.013,0.924-16.4,0
					c-2.387-0.924-9.162-2.464-12.858-2.772c-3.696-0.308-29.277,9.075-34.186,16.7c-4.909,7.625-0.924,31.835-11.087,34.67
					c-10.163,2.835-14.475-1.808-15.399,0.052c-0.924,1.859-0.616,9.741,3.696,13.654c4.312,3.913,8.931,2.373,11.087,6.376
					c2.156,4.004,4.312,10.779,9.239,13.551c4.928,2.772,31.029,0.154,31.029,0.154l26.871-10.164l9.239-9.918l5.978-49.858
					C167.96,179.815,169.374,171.066,160.75,167.37z"/>
			</defs>
			<clipPath id="SVGID_00000150096126626245534930000009161764484780775092_">
				<use xlink:href="#SVGID_00000101099665598223773510000013554124077368293799_"  style="overflow:visible;"/>
			</clipPath>
			<g style="clip-path:url(#SVGID_00000150096126626245534930000009161764484780775092_);">
				<g>
					<g>
						<path style="fill:#FFA35C;" d="M152.655,206.638c-5.168-2.057-11.226-1.63-15.952,1.369c-4.249,2.697-7.2,7.167-8.012,12.13
							c-0.51,3.122-0.317,6.291-0.501,9.437c-0.169,2.89-0.77,5.724-1.828,8.421c-2.048,5.222-5.72,9.81-10.443,12.851
							c-5.657,3.643-12.616,5.05-19.245,3.949c-0.582-0.097-0.83,0.794-0.244,0.891c10.749,1.785,21.774-2.798,27.895-11.85
							c3.058-4.522,4.625-9.757,4.832-15.19c0.123-3.212-0.06-6.482,0.697-9.634c0.66-2.746,2.041-5.294,3.946-7.377
							c4.705-5.143,12.178-6.666,18.609-4.106C152.963,207.749,153.201,206.855,152.655,206.638L152.655,206.638z"/>
					</g>
				</g>
				<g>
					<g>
						<path style="fill:#FFA35C;" d="M151.963,201.023c-5.326-4.185-13.486-4.758-19.577-1.915
							c-3.175,1.482-5.253,4.199-6.756,7.285c-1.66,3.409-2.941,7-4.527,10.446c-6.434,13.981-15.843,27.631-30.76,33.353
							c-3.957,1.518-8.172,2.409-12.418,2.414c-3.908,0.005-9.154-0.396-11.504-4.01c-0.323-0.496-1.122-0.033-0.797,0.468
							c1.731,2.663,4.814,3.711,7.825,4.149c3.506,0.51,7.081,0.383,10.56-0.262c7.206-1.335,13.916-4.874,19.497-9.566
							c5.826-4.898,10.421-11.145,14.154-17.738c1.923-3.397,3.631-6.911,5.206-10.482c1.5-3.399,2.674-7.028,4.593-10.221
							c2.497-4.154,6.577-6.084,11.305-6.514c4.407-0.401,9.013,0.471,12.55,3.251C151.775,202.043,152.431,201.391,151.963,201.023
							L151.963,201.023z"/>
					</g>
				</g>
				<g>
					<g>
						<path style="fill:#FFA35C;" d="M157.585,196.085c-3.629-4.301-10.343-4.824-15.566-5.219
							c-6.616-0.499-13.283,0.084-19.727,1.649c-0.578,0.14-0.339,1.033,0.239,0.892c6.064-1.472,12.312-2.054,18.543-1.68
							c2.943,0.176,5.914,0.515,8.787,1.19c2.68,0.629,5.26,1.676,7.074,3.825C157.318,197.196,157.966,196.537,157.585,196.085
							L157.585,196.085z"/>
					</g>
				</g>
				<g>
					<g>
						<path style="fill:#FFA35C;" d="M159.894,191.238c-5.408-5.174-11.981-9.036-19.118-11.285
							c-3.497-1.102-7.118-1.808-10.772-2.102c-1.873-0.151-3.758-0.191-5.636-0.11c-1.554,0.067-3.141,0.212-4.268,1.402
							c-0.408,0.431,0.246,1.083,0.657,0.65c1.273-1.344,3.508-1.157,5.216-1.167c1.679-0.01,3.357,0.071,5.027,0.24
							c3.5,0.356,6.962,1.113,10.299,2.227c6.694,2.234,12.846,5.924,17.945,10.803C159.673,192.305,160.325,191.65,159.894,191.238
							L159.894,191.238z"/>
					</g>
				</g>
				<g>
					<g>
						<path style="fill:#FFA35C;" d="M161.003,188.203c-7.669-13.564-24.55-15.522-38.509-16.834
							c-0.593-0.056-0.594,0.869-0.007,0.924c13.618,1.28,30.225,3.125,37.718,16.378
							C160.499,189.188,161.297,188.722,161.003,188.203L161.003,188.203z"/>
					</g>
				</g>
				<g>
					<g>
						<path style="fill:#FFA35C;" d="M130.174,167.155c6.06,2.915,12.839,2.612,19.387,2.986c3.39,0.194,7.186,0.534,9.764,3.012
							c2.325,2.234,3.193,5.527,3.99,8.544c0.152,0.575,1.045,0.337,0.892-0.239c-0.752-2.844-1.573-5.831-3.482-8.145
							c-2.06-2.497-5.13-3.468-8.242-3.852c-7.32-0.904-14.988,0.195-21.848-3.105C130.103,166.098,129.637,166.897,130.174,167.155
							L130.174,167.155z"/>
					</g>
				</g>
				<g>
					<g>
						<path style="fill:#FFA35C;" d="M119.576,205.086c-10.693,10.583-17.086,25.877-31.241,32.639
							c-3.81,1.82-7.963,2.75-12.189,2.426c-0.594-0.046-0.597,0.879-0.007,0.924c15.996,1.227,26.575-13.27,35.043-24.585
							c2.811-3.756,5.71-7.449,9.05-10.755C120.656,205.318,120,204.667,119.576,205.086L119.576,205.086z"/>
					</g>
				</g>
				<g>
					<g>
						<path style="fill:#FFA35C;" d="M109.504,197.723c-4.61,6.847-9.328,13.871-15.854,19.062
							c-6.465,5.143-14.96,8.311-23.21,6.264c-2.503-0.621-4.896-1.608-7.248-2.651c-2.11-0.935-4.292-1.935-5.697-3.845
							c-0.348-0.474-1.15-0.012-0.797,0.468c2.355,3.203,6.815,4.677,10.417,5.973c4.136,1.488,8.402,2.02,12.749,1.263
							c8.685-1.512,15.889-7.178,21.458-13.748c3.29-3.883,6.143-8.107,8.982-12.323
							C110.637,197.691,109.835,197.232,109.504,197.723L109.504,197.723z"/>
					</g>
				</g>
				<g>
					<g>
						<path style="fill:#FFA35C;" d="M104.274,191.21c-4.733,10.31-15.04,18.973-27.03,16.498c-0.581-0.12-0.827,0.771-0.244,0.891
							c5.933,1.224,12.142-0.231,17.151-3.577c4.876-3.257,8.496-8.061,10.924-13.35C105.32,191.136,104.522,190.669,104.274,191.21
							L104.274,191.21z"/>
					</g>
				</g>
			</g>
		</g>
		<path style="fill:#701D1D;" d="M135.342,164.29c-1.848-1.848-8.777-3.234-16.4,0c-7.623,3.234-15.245,10.163-21.251,11.318
			c-6.006,1.155-14.783,1.386-15.014,2.31c-0.231,0.924,12.242,14.552,22.175,21.944c9.932,7.392,32.569,18.941,34.879,25.408h4.62
			C144.35,225.27,137.19,166.138,135.342,164.29z"/>
		<path style="fill:#AC8457;" d="M166.063,179.815c4.62-1.32,7.161,8.294,8.315,16.48c1.155,8.186,0.462,13.144,3.465,14.246
			c3.003,1.101,6.006-0.054,6.468,1.332c0.462,1.386-2.541,6.208-2.541,6.208s0.231,19.432-3.927,21.972
			c-4.158,2.541-15.938,1.155-19.172,2.772s-18.71,16.862-18.71,16.862l-14.09-9.932c0,0,0,0.539,5.94-4.287
			c5.294-4.301,9.305-9.11,9.305-9.11s-14.321-7.319-6.006-13.361s12.242,2.504,12.242,2.504s2.541,6.93,6.468,5.775
			c0,0-3.465-5.494-3.465-11.525c0-1.731-0.457-3.689-1.109-5.601c-1.687-4.95-1.067-10.414,1.655-14.88
			C155.145,192.305,160.422,181.427,166.063,179.815z"/>
		<g>
			<defs>
				<path id="SVGID_00000160157145756963788030000017256275005840174984_" d="M166.063,179.815c4.62-1.32,7.161,8.294,8.315,16.48
					c1.155,8.186,0.462,13.144,3.465,14.246c3.003,1.101,6.006-0.054,6.468,1.332c0.462,1.386-2.541,6.208-2.541,6.208
					s0.231,19.432-3.927,21.972c-4.158,2.541-15.938,1.155-19.172,2.772s-18.71,16.862-18.71,16.862l-14.09-9.932
					c0,0,0,0.539,5.94-4.287c5.294-4.301,9.305-9.11,9.305-9.11s-14.321-7.319-6.006-13.361s12.242,2.504,12.242,2.504
					s2.541,6.93,6.468,5.775c0,0-3.465-5.494-3.465-11.525c0-1.425-0.309-3.002-0.782-4.582c-1.735-5.799-0.927-12.06,2.15-17.273
					C155.818,190.959,160.781,181.324,166.063,179.815z"/>
			</defs>
			<clipPath id="SVGID_00000152946798435505587730000004126469180510608788_">
				<use xlink:href="#SVGID_00000160157145756963788030000017256275005840174984_"  style="overflow:visible;"/>
			</clipPath>
			<g style="clip-path:url(#SVGID_00000152946798435505587730000004126469180510608788_);">
				<g>
					<path style="fill:#4A0F00;" d="M174.488,227.577c2.608,0.327,5.224,0.484,7.853,0.47c1.19-0.006,1.203-1.855,0.013-1.848
						c-2.629,0.014-5.245-0.143-7.853-0.47C173.322,225.58,173.321,227.43,174.488,227.577L174.488,227.577z"/>
				</g>
			</g>
			<g style="clip-path:url(#SVGID_00000152946798435505587730000004126469180510608788_);">
				<g>
					<path style="fill:#4A0F00;" d="M131.261,228.113c2.677-2.099,5.863-2.695,8.835-0.822c2.645,1.667,4.204,4.522,5.691,7.173
						c0.581,1.036,2.177,0.104,1.594-0.936c-1.835-3.271-3.876-6.743-7.406-8.411c-3.543-1.674-7.07-0.623-10.027,1.696
						C129.014,227.545,130.335,228.84,131.261,228.113L131.261,228.113z"/>
				</g>
			</g>
		</g>
		<g>
			<g>
				<path style="fill:#4A0F00;" d="M170.34,206.805c0.421,2.132,0.655,4.275,0.712,6.447c0.031,1.188,1.88,1.203,1.848,0.013
					c-0.062-2.336-0.323-4.646-0.775-6.938C171.894,205.16,170.11,205.643,170.34,206.805L170.34,206.805z"/>
			</g>
		</g>
		<path style="fill:#7D4921;" d="M184.311,211.873c-0.462-1.386-3.465-0.231-6.468-1.332c-0.752-0.276-1.271-0.793-1.647-1.542
			c-0.48,2.813,2.54,7.932,5.574,9.082C181.77,218.081,184.773,213.259,184.311,211.873z"/>
		<g>
			<g>
				<path style="fill:#4A0F00;" d="M165.469,200.665c0.533-0.999,1.233-1.865,2.168-2.517c0.752-0.524,2.272-1.439,3.108-0.648
					c0.862,0.816,2.167-0.494,1.3-1.314c-2.74-2.592-6.887,1.137-8.177,3.555C163.309,200.79,164.907,201.717,165.469,200.665
					L165.469,200.665z"/>
			</g>
		</g>
		<circle style="fill:#ECC19C;" cx="162.425" cy="225.444" r="5.607"/>
		<g>
			<g>
				<path style="fill:#4A0F00;" d="M141.923,227.634c-1.611,0.518-2.961,1.639-3.678,3.183c-0.498,1.072,1.098,2.004,1.6,0.924
					c0.513-1.104,1.387-1.946,2.556-2.322C143.53,229.056,143.058,227.269,141.923,227.634L141.923,227.634z"/>
			</g>
		</g>
	</g>
	<path style="fill:#FFCD69;" d="M144.35,285.809l1.945-18.829c0,0-1.5-19.747-17.5-22.209c-16-2.462-43.401,26.765-58.401,68.265
		s-9.965,55.494,4.401,58.804c9.833,2.469,58.5-16.531,60-20.531s-4.5-9.495-4.5-9.495s4.5-2,3.5-5.003s-4-9.503-4-9.503
		s15-7.655,16.5-13.328C147.795,308.309,144.35,285.809,144.35,285.809z"/>
	<g>
		<defs>
			<path id="SVGID_00000049214536350310045370000013809999931593800347_" d="M144.35,285.809l1.945-18.829
				c0,0-1.5-19.747-17.5-22.209c-16-2.462-43.401,26.765-58.401,68.265s-9.965,55.494,4.401,58.804
				c9.833,2.469,58.5-16.531,60-20.531s-4.5-9.495-4.5-9.495s4.5-2,3.5-5.003s-4-9.503-4-9.503s15-7.655,16.5-13.328
				C147.795,308.309,144.35,285.809,144.35,285.809z"/>
		</defs>
		<clipPath id="SVGID_00000079456367997361533600000017153160877217812156_">
			<use xlink:href="#SVGID_00000049214536350310045370000013809999931593800347_"  style="overflow:visible;"/>
		</clipPath>
		<g style="clip-path:url(#SVGID_00000079456367997361533600000017153160877217812156_);">
			<g>
				<g>
					<path style="fill:#BCBEC0;" d="M132.677,341.113c-3.92,1.238-7.841,2.476-11.761,3.715c-0.612,0.193-0.356,1.16,0.259,0.966
						c3.92-1.238,7.841-2.476,11.761-3.715C133.548,341.886,133.293,340.919,132.677,341.113L132.677,341.113z"/>
				</g>
			</g>
			<g>
				<g>
					<path style="fill:#BCBEC0;" d="M132.144,326.503c-4.086,1.222-7.911,3.104-11.362,5.611c-0.515,0.374-0.016,1.242,0.506,0.863
						c3.381-2.456,7.11-4.31,11.115-5.508C133.019,327.285,132.762,326.318,132.144,326.503L132.144,326.503z"/>
				</g>
			</g>
			<g>
				<g>
					<path style="fill:#BCBEC0;" d="M76.406,362.537c3.399,5.826,8.827,10.222,15.223,12.358c0.612,0.204,0.872-0.761,0.264-0.965
						c-6.149-2.054-11.358-6.303-14.624-11.9C76.945,361.476,76.081,361.98,76.406,362.537L76.406,362.537z"/>
				</g>
			</g>
			<g>
				<g>
					<path style="fill:#BCBEC0;" d="M88.574,358.686c1.125,5.369,3.319,10.435,6.469,14.926c0.367,0.523,1.233,0.022,0.863-0.506
						c-3.104-4.425-5.257-9.388-6.366-14.679C89.408,357.796,88.442,358.057,88.574,358.686L88.574,358.686z"/>
				</g>
			</g>
			<g>
				<g>
					<path style="fill:#BCBEC0;" d="M93.562,365.188c0.75,2.333,1.5,4.667,2.25,7c0.196,0.611,1.163,0.355,0.966-0.259
						c-0.75-2.333-1.5-4.667-2.25-7C94.332,364.319,93.365,364.574,93.562,365.188L93.562,365.188z"/>
				</g>
			</g>
			<g>
				<g>
					<path style="fill:#BCBEC0;" d="M112.302,354.69c0.596,3.811,0.154,7.644-1.239,11.237c-0.233,0.601,0.734,0.859,0.965,0.264
						c1.461-3.768,1.863-7.771,1.24-11.76C113.168,353.796,112.203,354.059,112.302,354.69L112.302,354.69z"/>
				</g>
			</g>
			<g>
				<g>
					<path style="fill:#BCBEC0;" d="M118.112,353.93c0.513,3.553-0.328,7.103-2.314,10.085c-0.357,0.537,0.51,1.034,0.866,0.5
						c2.143-3.217,2.965-7.026,2.414-10.844C118.986,353.036,118.021,353.3,118.112,353.93L118.112,353.93z"/>
				</g>
			</g>
		</g>
	</g>
	<path style="fill:#FFFFFF;" d="M221.545,209.242c-4.688-1.619-14.75,5.202-18.5,9.924c-3.75,4.722-9.5,22.222-12.5,26.472
		s-9.75,9.5-9.25,10.75s4.75,1.507,7,2.629s3.858,3.895,5.804,5.633c1.946,1.738,5.42,2.287,7.308,3.513
		c1.888,1.225,9.138,1.475,9.138,1.475l8-10.621C218.545,259.017,237.045,214.596,221.545,209.242z"/>
	<path style="fill:#AC8457;" d="M131.98,247.444c8.284,2.267,13.315,17.54,14.315,19.535s30.915,20.329,33.957,19.996
		c3.043-0.333,30.684-30.011,32.035-31.172c1.351-1.161,1.674-14.161,4.007-18.161c2.333-4,3.667-4.392,3.667-6.363
		s-0.103-8.381,3.115-6.009c3.218,2.372,1.385,5.705,1.968,7.705c0.583,2-2.574,6.333,0.005,6.833
		c2.579,0.5,12.178-4.808,13.42-5.68c1.242-0.872,1.992-4.486,3.575-4.319c1.583,0.167,2.25,2.5,1.917,4.5s-3,5.5-3,5.5
		s1.667,4.091,1.667,4.962s-1.333,2.538-1.333,2.538s1,1.797,0.333,3.565c-0.667,1.768-2.333,3.435-2.333,3.435s0.667,1.667-0.667,3
		c-1.333,1.333-10.5,3.049-13.583,5.691c-3.083,2.642-28.666,47.309-39.375,50.642s-48.042-19-48.042-19
		s-7.566,17.913-24.116,10.623C96.962,297.975,105.647,240.239,131.98,247.444z"/>
	<path style="fill:#BCBEC0;" d="M120.94,286.791c0,0,5.073,28.001,16.484,36.02c3.955-2.629,8.118-5.979,8.872-8.83
		c0.686-2.593,0.337-8.699-0.242-14.567c-2.93-1.584-5.752-3.174-8.425-4.772L120.94,286.791z"/>
</g>
</svg>
